<?xml version="1.0" standalone="no"?><!DOCTYPE svg PUBLIC "-//W3C//DTD SVG 1.1//EN" "http://www.w3.org/Graphics/SVG/1.1/DTD/svg11.dtd"><svg t="1767142780022" class="icon" viewBox="0 0 1026 1024" version="1.1" xmlns="http://www.w3.org/2000/svg" p-id="9909" xmlns:xlink="http://www.w3.org/1999/xlink" width="200.390625" height="200"><path d="M966.144 569.856c-20.48 115.712-124.416 203.776-249.344 203.776H295.424c-125.44 0-229.888-89.088-249.856-205.312-23.04 2.048-43.52-15.36-45.568-38.4V364.032c0-23.04 18.944-41.984 41.984-41.984 0-136.192 113.152-246.272 253.44-246.272h421.888c139.776 0 253.44 110.592 253.44 246.272V327.68c22.528-6.656 45.568 6.656 52.224 28.672 1.024 3.584 1.536 7.68 1.536 11.776v162.304c0 23.552-18.944 41.984-41.984 42.496-6.144 0-11.264-1.024-16.384-3.072z m-670.72-391.68c-81.408 0-147.456 64.512-147.456 143.872V527.36c0 79.36 66.048 143.872 147.968 143.872h421.888c81.408 0 147.968-64.512 147.968-143.872V322.048c0-79.36-66.048-143.872-147.968-143.872H295.424z m63.488 102.912c34.816 0 63.488 28.16 63.488 63.488v110.08c0 34.816-28.16 63.488-63.488 63.488-34.816 0-63.488-28.16-63.488-63.488V344.064c0-34.816 28.16-62.976 63.488-62.976z m294.912 0c34.816 0 63.488 28.16 63.488 63.488v110.08c1.024 34.816-26.624 64-61.44 65.024s-64-26.624-65.024-61.44V344.064c-0.512-34.816 27.648-62.976 62.976-62.976zM376.32 937.984c-68.096 0-123.392-55.296-123.392-123.392h506.368c0 68.096-55.296 123.392-123.392 123.392H376.32z" p-id="9910" fill="#13227a"></path></svg>